<?xml version="1.0" encoding="UTF-8" standalone="no"?>
<svg
   xmlns:dc="http://purl.org/dc/elements/1.1/"
   xmlns:cc="http://creativecommons.org/ns#"
   xmlns:rdf="http://www.w3.org/1999/02/22-rdf-syntax-ns#"
   xmlns:svg="http://www.w3.org/2000/svg"
   xmlns="http://www.w3.org/2000/svg"
   xmlns:sodipodi="http://sodipodi.sourceforge.net/DTD/sodipodi-0.dtd"
   xmlns:inkscape="http://www.inkscape.org/namespaces/inkscape"
   viewBox="0 0 80 80"
   version="1.1"
   x="0px"
   y="0px"
   id="svg2"
   inkscape:version="0.48.4 r9939"
   width="100%"
   height="100%"
   sodipodi:docname="noun_236147_cc.svg">
  <metadata
     id="metadata22">
    <rdf:RDF>
      <cc:Work
         rdf:about="">
        <dc:format>image/svg+xml</dc:format>
        <dc:type
           rdf:resource="http://purl.org/dc/dcmitype/StillImage" />
        <dc:title></dc:title>
      </cc:Work>
    </rdf:RDF>
  </metadata>
  <defs
     id="defs20" />
  <sodipodi:namedview
     pagecolor="#ffffff"
     bordercolor="#666666"
     borderopacity="1"
     objecttolerance="10"
     gridtolerance="10"
     guidetolerance="10"
     inkscape:pageopacity="0"
     inkscape:pageshadow="2"
     inkscape:window-width="1600"
     inkscape:window-height="851"
     id="namedview18"
     showgrid="false"
     inkscape:zoom="2.3482587"
     inkscape:cx="-10.475847"
     inkscape:cy="58.327068"
     inkscape:window-x="0"
     inkscape:window-y="0"
     inkscape:window-maximized="1"
     inkscape:current-layer="g4" />
  <g
     id="g4"
     transform="translate(0,-20.5)">
    <g
       id="g3028"
       transform="translate(-0.1992185,22.637695)">
      <path
         inkscape:connector-curvature="0"
         id="path6"
         d="M 11.542969,57.777344 C 21.960938,43.730469 30.648438,28.6875 40.199219,8.140625 49.753906,28.6875 58.4375,43.730469 68.855469,57.777344 l -5.195313,3 C 56.707031,44.730469 48.019531,29.6875 40.199219,20.140625 32.378906,29.6875 23.695312,44.730469 16.738281,60.777344"
         style="fill:#000000;fill-opacity:1;fill-rule:nonzero;stroke:none" />
      <path
         inkscape:connector-curvature="0"
         id="path8"
         d="m 14.140625,56.277344 c 17.375,2 34.746094,2 52.117187,0 l 0,6 c -17.371093,-2 -34.742187,-2 -52.117187,0"
         style="fill:#000000;fill-opacity:1;fill-rule:nonzero;stroke:none" />
      <path
         inkscape:connector-curvature="0"
         id="path10"
         d="m 43.199219,14.140625 c -2,17.375 -2,34.746094 0,52.117187 l -6,0 c 2,-17.371093 2,-34.742187 0,-52.117187"
         style="fill:#000000;fill-opacity:1;fill-rule:nonzero;stroke:none" />
      <path
         inkscape:connector-curvature="0"
         id="path12"
         d="m 8.628906,51.765625 c 17.808594,17.558594 45.332032,17.558594 63.144532,0 l 3.855468,4.597656 c -20.9375,14.960938 -49.917968,14.960938 -70.859375,0"
         style="fill:#000000;fill-opacity:1;fill-rule:nonzero;stroke:none" />
    </g>
  </g>
</svg>
